<svg role="img" viewBox="0 0 24 24" xmlns="http://www.w3.org/2000/svg"><title>Emotion</title><path d="M11.996 0C5.372 0 0 5.373 0 11.996c0 6.626 5.373 11.996 11.996 11.996 6.626 0 11.996-5.373 11.996-11.996C23.992 5.373 18.622 0 11.996 0zM12.44 14.54l1.352 1.954-1.352 1.954H9.418L10.77 16.49l-1.352-1.954h3.022zm-7.604-.094h3.052l-2.028 1.472 1.352 1.954-3.054-2.22 1.706-1.2h-.028zm4.498-3.324h3.022l1.352 1.954-1.352 1.954H9.334l1.352-1.954-1.352-1.954zm3.022-3.418h3.054l-2.028 1.472 1.352 1.954-3.054-2.218 1.706-1.2h-.03zM14.516 4.34h3.054L15.54 5.812l1.352 1.954-3.054-2.22 1.706-1.2h-.028z" fill="currentColor"/></svg>
